<?xml version="1.0" encoding="utf-8"?>
<COLLADA xmlns="http://www.collada.org/2005/11/COLLADASchema" version="1.4.1" xmlns:xsi="http://www.w3.org/2001/XMLSchema-instance">
  <asset>
    <contributor>
      <author>Blender User</author>
      <authoring_tool>Blender 3.0.1</authoring_tool>
    </contributor>
    <created>2025-09-29T11:55:57</created>
    <modified>2025-09-29T11:55:57</modified>
    <unit name="meter" meter="1"/>
    <up_axis>Z_UP</up_axis>
  </asset>
  <library_effects>
    <effect id="LinkGrey_003-effect">
      <profile_COMMON>
        <technique sid="common">
          <lambert>
            <emission>
              <color sid="emission">0 0 0 1</color>
            </emission>
            <diffuse>
              <color sid="diffuse">0.8203922 0.8203922 0.8203922 1</color>
            </diffuse>
            <index_of_refraction>
              <float sid="ior">1</float>
            </index_of_refraction>
          </lambert>
        </technique>
      </profile_COMMON>
    </effect>
  </library_effects>
  <library_images/>
  <library_materials>
    <material id="LinkGrey_003-material" name="LinkGrey.003">
      <instance_effect url="#LinkGrey_003-effect"/>
    </material>
  </library_materials>
  <library_geometries>
    <geometry id="eSeries_UR10e_042-mesh" name="eSeries UR10e.042">
      <mesh>
        <source id="eSeries_UR10e_042-mesh-positions">
          <float_array id="eSeries_UR10e_042-mesh-positions-array" count="1596">17.97611 19.73386 108.4978 19.27941 15.12821 108.4978 20.29768 17.76633 108.4978 17.39278 14.61307 108.4978 15.50135 15.70615 108.4978 15.42242 18.53018 108.4978 -17.37924 19.73386 108.4978 -15.05766 17.76633 108.4978 -16.07593 15.12821 108.4978 -17.96256 14.61307 108.4978 -19.85399 15.70614 108.4978 -19.93292 18.53018 108.4978 17.29808 -15.66651 108.4978 15.21588 -17.23766 108.4978 19.92644 -16.73049 108.4978 19.52746 -20.16953 108.4978 16.0715 -20.37384 108.4978 -18.05726 -15.66651 108.4978 -20.13946 -17.23766 108.4978 -15.4289 -16.73049 108.4978 -15.82788 -20.16953 108.4978 -19.28384 -20.37384 108.4978 17.65175 19.78569 115.9566 15.07799 17.81152 115.9466 15.89308 15.32769 115.9696 18.16208 14.54502 115.9566 19.99406 16.08705 115.9696 20.02846 18.26646 115.9631 -17.70359 19.78569 115.9566 -20.27735 17.81152 115.9466 -19.46226 15.32769 115.9696 -17.19326 14.54502 115.9566 -15.36129 16.08705 115.9696 -15.32689 18.26646 115.9631 18.10136 -15.67456 115.9672 15.63667 -16.53351 115.9566 15.32699 -19.33566 115.9631 17.70369 -20.85495 115.9566 19.77547 -19.65448 115.9696 20.15209 -17.28401 115.9566 -18.14734 -15.68269 115.9672 -20.16975 -17.33287 115.9566 -19.3563 -20.25337 115.9566 -16.99778 -20.66554 115.9696 -15.30594 -19.29076 115.9631 -15.66993 -16.49374 115.9566 15.62792 14.55389 116.4823 19.04898 14.3854 116.4971 20.84104 16.67574 116.492 19.61478 19.57966 116.4962 17.05594 20.193 116.4962 14.7855 18.39672 116.4946 -19.72742 14.55389 116.4823 -16.30637 14.3854 116.4971 -14.5143 16.67574 116.492 -15.74057 19.57966 116.4962 -18.2994 20.193 116.4962 -20.56984 18.39671 116.4946 14.61732 -18.55734 116.4971 16.15674 -21.02499 116.492 19.55572 -20.74399 116.4946 20.80928 -17.85178 116.4946 19.16214 -15.4763 116.4962 15.74032 -15.60527 116.4881 -19.1986 -21.02499 116.492 -15.79962 -20.74399 116.4946 -14.54606 -17.85178 116.4946 -17.19692 -14.94521 116.4823 -20.83752 -17.46053 116.4881 0.1889027 51.07464 79.04652 -0.008071541 51.01372 83.05321 13.02501 18.26607 116.4978 13.55262 14.61339 116.4978 16.55485 12.49025 116.4978 20.20733 13.0179 116.4978 22.46373 16.42911 116.4978 21.04844 20.70354 116.4978 17.14116 21.89917 116.4978 14.54792 20.70978 116.4978 -22.33032 18.26606 116.4978 -21.80272 14.61339 116.4978 -18.80048 12.49026 116.4978 -15.14801 13.01789 116.4978 -12.89161 16.42912 116.4978 -14.30691 20.70354 116.4978 -18.21418 21.89917 116.4978 -20.80741 20.70979 116.4978 16.14352 -22.80169 116.4978 19.39886 -22.6345 116.4978 21.66581 -20.85878 116.4978 22.3771 -16.81425 116.4978 19.21187 -13.62293 116.4978 15.54757 -13.92608 116.4978 12.90897 -17.07322 116.4978 13.6215 -20.67488 116.4978 -21.73385 -20.67488 116.4978 -19.21182 -22.80169 116.4978 -15.14801 -22.33751 116.4978 -13.02489 -19.33525 116.4978 -13.73968 -15.29151 116.4978 -16.95656 -13.52216 116.4978 -19.80777 -13.92608 116.4978 -22.44637 -17.07321 116.4978 -4.76774 48.78208 82.27125 -3.648361 48.8766 84.25398 -1.921609 49.41216 85.35364 -0.8027664 48.00148 85.95146 0.3945444 49.26416 85.72755 5.66973e-5 47.99719 85.9478 0.5796599 47.99784 85.92779 2.474928 48.8617 85.2417 3.970632 49.36711 83.60073 4.828474 48.79322 81.74861 4.610311 49.10219 79.74307 3.700446 48.8617 77.88224 1.728513 47.9934 76.39572 0.3658217 48.00738 76.04639 -1.440043 49.16325 76.45681 -0.5791871 47.99784 76.1678 -3.720865 48.79442 77.88661 -4.854133 46.99764 79.83028 -4.019225 49.91045 79.34117 1.8122 49.84763 77.05492 -1.336042 50.53944 77.58418 2.610968 50.61733 78.56217 3.324417 50.79558 81.19015 1.988069 50.25592 84.4628 -2.625763 50.79956 83.06588 -3.691241 50.49497 81.46798 0.02462917 50.79847 84.24743 2.201004 50.91114 82.85284 -2.03998 50.94943 79.22641 0.04596489 51.05119 79.03575 -0.04584842 51.05119 83.05986 22.29303 15.78211 107.5978 20.6631 13.4221 107.5978 18.40252 12.42789 107.5978 15.13465 12.99594 107.5978 13.00024 16.01417 107.5978 13.53063 19.68609 107.5978 15.74146 21.47088 107.5978 18.21692 21.92449 107.5978 20.82413 20.7288 107.5978 22.19541 18.67544 107.5978 -13.06231 15.78211 107.5978 -14.37764 13.73869 107.5978 -16.54866 12.46555 107.5978 -20.22068 12.99594 107.5978 -22.3551 16.01417 107.5978 -21.82471 19.68609 107.5978 -19.61388 21.47088 107.5978 -17.13842 21.92449 107.5978 -14.53121 20.7288 107.5978 -13.15993 18.67544 107.5978 22.29302 -19.57325 107.5978 20.33852 -22.22151 107.5978 18.01756 -22.94134 107.5978 15.13454 -22.35934 107.5978 13.00025 -19.34119 107.5978 13.53069 -15.66915 107.5978 16.54882 -13.53483 107.5978 19.81953 -13.90348 107.5978 22.0881 -16.28828 107.5978 -18.80652 -13.53483 107.5978 -21.82465 -15.66915 107.5978 -22.35509 -19.34119 107.5978 -20.2208 -22.35934 107.5978 -17.33778 -22.94134 107.5978 -15.01682 -22.22151 107.5978 -13.06231 -19.57324 107.5978 -13.26724 -16.28829 107.5978 -15.53581 -13.90348 107.5978 4.376202 46.96545 83.57194 1.467257 46.96545 85.8146 -1.766899 46.96545 85.78566 -4.746459 46.96545 82.77767 -3.535659 46.96545 77.51668 -1.163264 46.96545 76.25093 1.767174 46.96545 76.31005 4.746573 46.96545 79.31797 5.66973e-5 24.46533 108.6952 -3.137021 23.70536 110.4827 -0.8773559 21.54219 110.4979 5.66973e-5 21.46533 110.4978 1.715132 21.65532 110.5133 3.048255 24.66713 110.4956 1.530496 27.31211 110.5015 -1.48869 27.31078 110.5075 5.66973e-5 27.46533 110.4978 -9.524891 -13.43939 110.4978 0.9985994 -16.54283 110.4978 -15.05897 -5.642283 110.4978 -15.72052 1.087405 110.4978 -12.90485 8.990056 110.4978 -3.763579 15.05685 110.4978 5.767205 14.28449 110.4978 13.36436 8.333972 110.4978 15.76347 0.5978116 110.4978 14.81926 -6.30118 110.4978 9.950405 -12.93836 110.4978 -4.98178e-4 46.96545 76.14767 6.12214e-4 46.96545 85.94795 -2.659513 22.89731 116.4411 -1.475286 21.60894 116.5999 0.6080335 21.27198 116.6902 2.520991 22.63336 116.5829 3.148089 24.56187 116.6064 2.207012 26.73836 116.6033 0.696534 27.40256 116.4485 -1.534936 27.29547 116.4545 -3.156907 24.94471 116.6106 12.90752 15.75705 116.4768 15.27215 12.88747 116.1871 19.81124 12.67651 116.1916 22.58146 16.02942 116.533 21.88912 19.62512 116.1865 18.06686 22.07795 116.1756 13.59417 19.94094 116.1768 -22.33881 15.85157 116.1917 -20.08803 12.89026 116.1968 -16.46937 12.28141 116.5517 -14.56709 13.49222 116.1942 -12.9951 15.93113 116.1917 -13.64703 20.01695 116.1756 -17.2534 22.1227 116.5089 -20.10943 21.27686 116.1987 -22.07642 19.15456 116.1953 12.69249 -17.78585 116.52 14.20741 -21.74249 116.1756 17.3687 -23.20306 116.5319 20.88128 -21.9033 116.1683 22.49955 -18.59288 116.1916 21.36856 -15.00859 116.1685 18.05828 -13.39052 116.1917 14.50149 -14.49639 116.1871 -22.65731 -17.78807 116.5089 -21.36857 -21.41591 116.1683 -18.05773 -23.03415 116.1917 -15.10145 -22.52116 116.5251 -13.17629 -20.38516 116.5376 -13.09941 -16.49871 116.1871 -14.91426 -14.0449 116.5319 -18.2588 -13.22167 116.5257 -21.2272 -14.67232 116.5388 -1.295193 -16.2881 115.6917 -6.615981 -14.89028 115.7098 -11.11872 -11.7694 115.6917 -14.90307 -6.084978 115.6861 -15.75338 0.7604988 115.6916 -14.36039 6.070321 115.6916 -11.23537 10.58345 115.6916 -6.744422 13.76118 115.7098 -1.920204 15.06105 115.6958 4.6601 14.77294 115.7107 11.11848 10.70046 115.6917 14.29051 6.220417 115.6916 15.73906 0.9254564 115.6916 14.9844 -5.861842 115.6861 10.31301 -12.64052 115.686 4.230114 -15.7633 115.675 4.746572 43.96533 82.77767 1.772418 43.96533 85.79045 -1.408747 43.96533 85.83259 -4.376089 43.96533 83.57194 -4.74646 43.96533 79.31797 -1.772309 43.96533 76.30517 1.058389 43.96533 76.22924 3.535773 43.96533 77.51668 4.758217 43.96533 79.78277 0.006584048 27.71542 116.6964 5.66973e-5 27.46533 116.4478 5.66973e-5 27.71533 116.6978 -1.215063 27.60559 116.7041 -0.006400883 21.21525 116.6964 5.66973e-5 21.21533 116.6978 19.97697 22.3277 116.7859 15.29842 21.92907 116.6962 12.57754 18.86588 116.6963 22.26598 20.06985 116.7356 15.10161 12.39513 116.6945 20.11955 12.27742 116.6919 -21.29515 21.19976 116.7071 -13.39872 20.52535 116.6957 -20.25927 12.42094 116.6948 -12.48959 15.25461 116.6882 -23.13018 16.5648 116.692 22.79404 -19.89221 116.6947 22.46386 -15.83326 116.6962 18.91742 -12.89704 116.6931 21.44003 -22.22784 116.72 13.61484 -21.78022 116.6947 14.09725 -14.16796 116.6942 -12.38457 -17.13381 116.6945 -19.35761 -23.32833 116.6945 -22.02706 -21.4551 116.7307 3.763949 15.88407 116.7014 5.66973e-5 15.21533 115.6978 5.66973e-5 16.21533 116.6978 -0.2310115 16.21584 116.6577 4.977664 -16.84112 116.712 13.19067 -11.11584 116.6967 17.02226 -1.596308 116.6955 15.12011 6.804228 116.6973 10.36805 12.86874 116.6968 -0.2301033 -17.28492 116.6583 5.66973e-5 -17.28455 116.6978 -10.67749 12.68343 116.6963 -16.0135 4.896967 116.6962 -16.35891 -5.35879 116.6957 -10.36673 -13.93882 116.6967 6.12429e-4 43.96533 76.13795 -4.98734e-4 43.96533 85.95767 -2.531447 -31.35357 116.6988 7.210735 29.35877 116.6987 -7.787753 29.16509 116.6985 -18.3131 24.00547 116.6979 28.12057 11.91329 116.6994 30.49457 0.8708161 116.698 -26.04223 15.52962 116.698 -30.45323 3.929058 116.6994 13.38693 -28.21165 116.6989 29.09644 -10.64319 116.6999 -28.7081 -11.69858 116.6997 -15.83235 -26.82917 116.6984 5.040446 40.1654 80.39559 4.140691 40.1654 83.88507 1.393267 40.1654 85.82374 -1.06302 40.1654 85.90708 -3.115612 40.1654 84.98346 -4.900148 40.1654 82.2305 -4.344503 40.1654 78.38367 -1.463094 40.1654 76.27219 1.177043 40.1654 76.20161 3.513216 40.1654 77.46279 20.61853 -24.4287 115.7032 12.05715 -29.81644 115.6924 31.50212 2.693073 115.6922 30.4068 -9.380372 115.708 25.95466 -18.49292 115.7038 24.54293 19.30703 115.7032 28.81165 12.35074 115.7038 18.70749 24.88344 115.7221 11.59764 28.81662 115.7325 -4.245193 30.73879 115.7217 3.772724 30.79864 115.6783 -12.03938 28.639 115.7217 -19.0445 24.63187 115.7221 -26.07936 17.42817 115.6922 -30.29113 8.330201 115.7038 -31.54884 0.3740009 115.6842 -30.74337 -7.674825 115.7038 -27.92682 -15.23949 115.7038 -23.17416 -21.95758 115.7151 -15.09075 -28.37101 115.7005 2.142792 -32.02346 115.7038 -5.913476 -31.53736 115.7037 5.6685e-5 40.1654 76.09782 -0.29318 40.1654 76.07158 5.6684e-5 40.1654 85.99781 1.747335 40.1654 85.88937 -2.380585 -32.00336 110.1978 -10.28498 -30.37037 110.1978 -19.34626 -25.60208 110.1978 -27.33915 -16.5104 110.1978 -31.33622 -5.083611 110.1978 -30.32908 9.072511 110.1978 -24.44837 19.42098 110.1978 -16.84378 26.27847 110.1978 -7.656511 30.08121 110.1978 2.538507 31.02821 110.1978 12.17573 28.58076 110.1978 19.16247 24.54032 110.1978 24.89603 18.85976 110.1978 29.00125 11.91055 110.1978 31.20952 4.147386 110.1978 31.17342 -6.09135 110.1978 26.81003 -17.38343 110.1978 18.52832 -26.21261 110.1978 7.537339 -31.28925 110.1978 -4.874442 40.87921 82.88163 -2.205269 40.85762 85.67976 0.2159511 40.9684 86.24091 2.183155 40.98125 86.04072 5.112012 40.8842 81.98441 4.740832 40.8929 79.14942 2.241895 40.80081 76.31575 -1.081109 40.76493 76.13869 -2.105686 40.98509 76.04775 -4.751641 40.88291 79.11209 17.3843 38.42077 110.1984 0.3662058 41.96583 110.2361 -17.38321 -39.49036 110.1985 -4.034922 -43.00176 110.1984 9.736103 -42.06702 110.1985 -6.310127 41.62096 110.1934 -18.43707 37.93357 110.1985 22.48817 -36.78406 110.1984 31.17565 -29.50248 110.198 40.3461 13.75498 110.1994 30.61709 29.37486 110.1995 -37.41397 -21.02654 110.1985 -28.91232 -31.90038 110.1984 -27.86048 31.63436 110.198 -35.6302 22.9221 110.1984 -41.2547 10.31774 110.1985 37.95752 -20.00147 110.1985 42.61701 -4.506667 110.1995 -42.47455 -5.816835 110.1994 -0.07131558 40.95307 86.24794 0.01042407 40.96306 75.84769 5.66973e-5 40.76538 76.04782 5.66973e-5 40.96533 75.84783 2.584331 -45.52364 107.7036 -7.14734 -45.02735 107.7036 -18.78043 -41.61663 107.7072 -29.06277 -34.97345 107.7036 -35.78678 -27.92057 107.7036 -41.88649 -17.44489 107.7073 -44.78305 -5.550535 107.7036 -44.81433 4.193532 107.7036 -42.75016 13.71686 107.7036 -38.68701 22.57367 107.7036 -31.21376 32.11709 107.7073 -20.93255 39.40306 107.6699 -7.990451 43.99507 107.684 5.66973e-5 41.96545 110.1978 5.66973e-5 44.46533 107.6978 6.021447 44.15561 107.7003 18.9243 40.46023 107.7231 30.91477 32.40043 107.7073 38.53796 22.82159 107.7036 42.65785 13.99116 107.7036 44.78316 4.481207 107.7036 44.81444 -5.262873 107.7036 42.03903 -17.06233 107.7073 35.96207 -27.69013 107.7036 27.49962 -36.37052 107.7073 14.61813 -43.27507 107.7073 7.298127 44.23305 71.73721 -9.809845 43.51028 72.50312 17.39977 40.96533 75.04782 -17.39966 40.96533 75.04782 -0.03746712 44.46845 71.55047 -17.39966 40.96533 87.04781 17.39977 40.96533 87.04781 9.814094 43.50963 89.59203 -7.305469 44.23284 90.35863 0.03775888 44.46847 90.54515 -12.11802 42.87422 67.94787 -20.89425 39.38297 67.94767 5.66973e-5 44.46533 90.54781 11.42843 43.04592 67.94794 20.99935 39.36926 67.9476 -0.3966476 44.60429 67.94891 5.66973e-5 44.46533 71.54782 31.50568 31.83158 67.94783 38.83115 22.32465 67.94783 42.83738 13.44273 67.94783 44.84059 3.907065 67.94783 44.74711 -5.835911 67.94783 41.72942 -17.82155 67.94783 35.60893 -28.14644 67.94783 28.84047 -35.15583 67.94783 18.40738 -41.78199 67.94783 6.862884 -45.06896 67.94783 -2.871136 -45.50309 67.94783 -15.00273 -43.13847 67.94783 -27.82045 -36.11825 67.94783 -36.13205 -27.45813 67.94783 -42.18387 -16.68069 67.94783 -44.84048 -4.976377 67.94783 -44.747 4.766583 67.94783 -42.5612 14.26207 67.94783 -38.38528 23.0655 67.94783 -30.6138 32.67632 67.94783 43.72443 -0.534668 67.94783 43.45905 -5.344727 67.94783 42.66614 -10.09631 67.94783 41.35532 -14.73193 67.94783 39.5425 -19.19519 67.94783 37.2497 -23.43189 67.94783 34.50473 -27.39063 67.94783 31.34093 -31.02344 67.94783 27.79668 -34.28625 67.94783 23.91502 -37.13928 67.94783 19.74307 -39.54785 67.94783 15.33146 -41.48303 67.94783 10.73375 -42.92102 67.94783 6.005755 -43.84448 67.94783 1.204853 -44.24243 67.94783 -3.610673 -44.10962 67.94783 -8.382371 -43.44787 67.94783 -13.05232 -42.26538 67.94783 -17.56382 -40.57629 67.94783 -21.86213 -38.40112 67.94783 -25.89506 -35.76623 67.94783 -29.61366 -32.70373 67.94783 -32.97278 -29.25073 67.94783 -35.93166 -25.4491 67.94783 -38.45438 -21.34509 67.94783 -40.51031 -16.98853 67.94783 -42.07451 -12.43213 67.94783 -43.12797 -7.731445 67.94783 -43.65792 -2.943359 67.94783 -43.65792 1.874023 67.94783 -43.12797 6.662231 67.94783 -42.07451 11.36291 67.94783 -40.51031 15.91931 67.94783 -38.45438 20.27588 67.94783 -35.93166 24.37988 67.94783 -32.97278 28.18152 67.94783 -29.61366 31.63452 67.94783 -25.89506 34.69702 67.94783 -21.86213 37.33179 67.94783 -17.56382 39.50696 67.94783 -13.05232 41.19617 67.94783 -8.382371 42.37866 67.94783 -3.610673 43.0404 67.94783 1.204853 43.17309 67.94783 6.005755 42.77527 67.94783 10.73375 41.85181 67.94783 15.33146 40.41382 67.94783 19.74307 38.47864 67.94783 23.91502 36.06995 67.94783 27.79668 33.21704 67.94783 31.34093 29.95422 67.94783 34.50473 26.32141 67.94783 37.2497 22.36267 67.94783 39.5425 18.12598 67.94783 41.35532 13.6626 67.94783 42.66614 9.0271 67.94783 43.45905 4.275391 67.94783</float_array>
          <technique_common>
            <accessor source="#eSeries_UR10e_042-mesh-positions-array" count="532" stride="3">
              <param name="X" type="float"/>
              <param name="Y" type="float"/>
              <param name="Z" type="float"/>
            </accessor>
          </technique_common>
        </source>
        <source id="eSeries_UR10e_042-mesh-normals">
          <float_array id="eSeries_UR10e_042-mesh-normals-array" count="2808">-3.75459e-6 0 1 -5.02497e-6 0 1 5.74517e-6 0 1 2.28936e-6 0 1 -7.50916e-6 0 1 6.52047e-6 0 1 -2.95621e-6 0 1 0 0 1 -1.03911e-6 0 1 -1.03911e-6 0 1 0.4262281 -0.9042752 0.02481961 0.6080241 -0.7924455 -0.04834026 0.9984158 0.02790457 0.0488587 0.9496914 0.311334 -0.0340206 0.5002877 0.86568 0.01761931 0.3258558 0.9450893 -0.0249862 -0.2632347 0.964062 0.03594565 -0.6433835 0.7646691 -0.03659105 -0.9320548 0.3597591 0.04298049 -0.9991896 0.01566088 -0.03708285 -0.6462904 -0.7625856 0.02778136 -0.538468 -0.842463 -0.01756203 0.4262306 -0.9042741 0.02481901 0.6080245 -0.7924454 -0.04834061 0.998416 0.02790296 0.0488587 0.9496906 0.3113364 -0.03402096 0.5002847 0.8656818 0.01761871 0.3258559 0.9450893 -0.0249862 -0.6433854 0.7646675 -0.03659158 -0.9320552 0.3597579 0.0429793 -0.9991894 0.01566106 -0.03708416 -0.6462888 -0.7625871 0.02778095 -0.538469 -0.8424623 -0.01756137 0.3290119 -0.943624 -0.0363996 0.6018131 -0.7975662 0.04134291 0.9929011 -0.1098363 -0.04564565 0.9630314 0.2627354 0.05950444 0.5373969 0.8409464 -0.06335443 -0.05883967 0.9952876 0.07707411 -0.5006897 0.8645594 -0.04297685 -0.987356 0.1569919 0.02195113 -0.9925983 0.1151554 0.03857475 -0.6170274 -0.7859418 -0.0396583 -0.3749388 -0.9262152 0.0393238 0.6023201 -0.7982354 0.00553447 0.6322051 -0.7747666 -0.007321953 0.9647151 0.2631956 0.007277548 0.9633185 0.2683135 0.005024731 0.1722071 0.9849579 -0.01423585 -0.05891972 0.9966378 0.0569356 -0.6300433 0.7751248 -0.04719281 -0.99179 0.1150622 0.0557971 -0.9912433 -0.1290599 -0.02793538 -0.3751728 -0.9267936 0.0172941 -0.3111475 -0.9503439 -0.005811333 0.6790911 0.2293136 0.6973168 0.1775261 0.5005686 0.847299 0.04717403 0.9763631 0.2109259 -0.3978142 0.4659397 0.7903442 -0.6805562 0.5336261 0.5020821 -0.5304083 0.0108999 0.8476722 -0.8948048 -0.3781926 0.2372654 -0.2807998 -0.4356358 0.8552034 -0.2104116 -0.8778272 0.4302865 0.3747248 -0.4925053 0.7855063 0.4030132 -0.5101054 0.7598506 0.9373934 0.2045919 0.2818433 0.6790916 0.2293137 0.6973162 0.1775265 0.5005707 0.8472978 0.04717415 0.9763621 0.2109307 -0.3978167 0.4659399 0.7903429 -0.6805521 0.5336262 0.5020877 -0.5304036 0.01090025 0.8476753 -0.8948021 -0.3781953 0.2372713 -0.2808007 -0.4356352 0.8552035 -0.210413 -0.877828 0.4302844 0.4030274 -0.5101082 0.7598412 0.937393 0.2045924 0.2818449 0.7992852 0.4979267 0.3364703 0.2596182 0.4023717 0.8778927 -0.08219635 0.993555 0.07805263 -0.2728426 0.4617366 0.844012 -0.8394328 0.3638427 0.4036968 -0.5792692 0.09647369 0.8094074 -0.7623197 -0.5288345 0.3730992 -0.3359479 -0.4335712 0.8361549 0.03539091 -0.9570618 0.2877156 0.1719623 -0.503888 0.8464787 0.8569905 -0.324786 0.4001019 0.5575735 -0.05969828 0.8279782 0.5945948 0.1656079 0.7867853 0.86139 0.3964161 0.3175872 0.09702944 0.580698 0.8083163 -0.07830572 0.9442414 0.3198068 -0.3403344 0.4227954 0.8398909 -0.8931674 0.3871334 0.2288663 -0.490778 -0.06184589 0.8690871 -0.7293373 -0.6658571 -0.1571667 -0.1400279 -0.4393236 0.8873483 0.6313416 -0.773361 -0.05762553 0.5053529 -0.730394 0.4595032 0.0929749 0.995648 -0.00637865 0.04796487 0.998695 0.01754653 -0.08148014 0.9966127 0.01114541 -0.05358392 0.9980887 0.03078591 0.002032876 -0.00275743 0.9999942 0.007494747 0.001082897 0.9999714 0.007773935 0.01100319 0.9999094 -0.004044651 0.00569117 0.9999756 -6.5325e-5 4.52343e-4 1 0.001052379 0.00140047 0.9999985 -0.003236114 0.002144813 0.9999926 -0.00374341 -0.001244127 0.9999923 0 -0.001438438 0.9999991 -2.62092e-4 -0.001086533 0.9999994 -2.79548e-4 -9.20504e-4 0.9999995 4.37665e-4 -9.56487e-4 0.9999995 3.65453e-4 -0.001345157 0.9999991 0.001889109 -0.00118643 0.9999976 0.002024054 -0.00275743 0.9999942 0.007494747 0.001082897 0.9999713 0.007773935 0.01100325 0.9999094 -0.004044651 0.005691111 0.9999756 -6.66861e-5 4.52342e-4 1 0.001052379 0.00140047 0.9999986 -0.003236114 0.002144813 0.9999925 -0.003752648 -0.001244187 0.9999922 0 -0.001438438 0.999999 -2.62093e-4 -0.001086533 0.9999995 -2.79549e-4 -9.20506e-4 0.9999996 4.37667e-4 -9.56488e-4 0.9999995 3.6545e-4 -0.001345157 0.9999991 0.001889109 -0.00118643 0.9999976 -0.001036584 0.00326687 0.9999942 -8.65275e-5 0.001698136 0.9999986 -0.001408874 0.001808404 0.9999974 -0.001485109 6.41501e-4 0.9999987 -0.002298414 4.05807e-4 0.9999974 -0.001089632 -0.001431405 0.9999984 -8.50939e-4 -8.37686e-4 0.9999993 -0.002331376 -7.97612e-4 0.999997 4.7042e-4 -0.005720317 0.9999836 0.006058096 -0.00507915 0.9999688 0.002301335 0.002175867 0.999995 4.91116e-4 9.7085e-5 1 0.002183198 -7.00763e-4 0.9999974 0.002727508 0.003238856 0.9999911 0.002607107 0.00229156 0.999994 0.002727508 0.003238856 0.9999911 -0.001036584 0.00326687 0.9999942 -2.17235e-4 0.001916527 0.9999982 -0.001794576 0.001271069 0.9999976 -0.001477301 6.40225e-4 0.9999988 -0.00252968 -4.4884e-4 0.9999967 -0.004466056 1.58066e-4 0.9999901 -0.00547719 -0.009962499 0.9999354 0.001575708 -0.011155 0.9999366 0.004370868 -0.004015862 0.9999824 0.005004882 -0.004204571 0.9999787 0.006326138 0.001251935 0.9999793 0.00538218 0.1696411 0.9854913 0.03389751 0.1609271 0.986384 0.2576377 0.1875462 0.9478657 -0.1274787 0.1490018 -0.9805854 -0.9569646 0.2493731 -0.1484312 -0.9160483 0.2046535 -0.3449239 0.2386711 0.3157097 -0.9183483 0.5011055 0.2697131 -0.8222824 0.07377654 0.4340707 -0.8978528 -0.1339088 0.2947505 0.9461452 -0.8495231 0.5273677 -0.01392877 -0.5266992 0.6187991 -0.582817 -0.5003471 0.5709934 -0.6508604 0.561297 0.5778018 -0.5925292 0.6923974 0.590332 -0.414842 0.7987703 0.6016083 0.005790829 0.7666131 0.6211827 0.162593 0.5277898 0.5472143 0.649611 0.2891236 0.5418488 0.7891815 -0.5464411 0.630895 0.5507937 -0.7060354 0.6039474 0.369813 -0.7073743 0.6111222 0.3551781 0.009061694 0.6332719 -0.7738764 0.6704014 0.7054989 -0.229855 0.1177116 0.7040099 0.7003671 -0.07363611 0.6831449 0.726561 0.1059412 0.8617202 -0.4962006 0.5452018 0.777131 0.3143609 0.5111118 0.7703931 0.3811289 -0.24799 0.7926173 0.5570088 -0.4658372 0.8689721 -0.1669828 -0.4453266 0.8050595 -0.3918718 0.2048119 0.896841 0.3920823 -0.07154655 0.960097 -0.2703608 0.0808323 0.9133934 -0.3989722 -0.04151505 0.6145504 -0.7877846 0.1629636 0.9803978 -0.110739 -0.09436213 0.9725766 0.2125812 -0.2698794 0.9628875 -0.003589153 -0.01766192 0.1574595 -0.9873676 0.07953304 0.9759522 0.2029579 0.8338041 -0.551534 0.02410256 0.8227222 -0.5682093 0.01632606 0.4024989 -0.9151807 -0.02095162 0.1428833 -0.989063 0.03659284 -0.1711902 -0.9848217 -0.02863913 -0.5767915 -0.8156123 0.04569786 -0.8158119 -0.5769206 -0.04016852 -0.9889793 -0.1428528 0.03889739 -0.9891761 0.1428821 -0.03339916 -0.8481321 0.5285501 0.03614819 -0.6280505 0.7779715 -0.01769572 -0.4167935 0.9087393 0.02181816 -0.1802097 0.9834451 -0.01898437 0.292396 0.9555397 0.03806096 0.4168484 0.9089416 -0.007925927 0.8314493 0.5552626 -0.01937943 0.9480971 0.3139213 0.05064904 0.9991979 0.03371202 -0.02161514 0.8338057 -0.5515317 0.02410286 0.8405078 -0.5410265 0.02893602 0.5056875 -0.8623229 -0.02606678 0.1428663 -0.9889776 0.03889286 -0.1428773 -0.9891766 -0.03340345 -0.5767883 -0.8156145 0.0456981 -0.8158111 -0.5769219 -0.04016888 -0.9889797 -0.1428506 0.03889757 -0.9891762 0.142881 -0.03339809 -0.8481326 0.5285492 0.03614938 -0.6280503 0.7779715 -0.01769584 -0.4167934 0.9087395 0.02181768 -0.1802095 0.9834451 -0.01898413 0.2923967 0.9555394 0.03806149 0.4168479 0.9089417 -0.00792557 0.8314503 0.5552612 -0.01937842 0.9480967 0.3139227 0.05064922 0.9991978 0.03371328 -0.02161514 0.9839166 -0.1730359 0.04434603 0.8042576 -0.5935701 -0.0290575 0.6163979 -0.7869166 0.02856385 0.2961979 -0.9550376 -0.01304405 0.05127334 -0.9983341 0.02646124 -0.1978119 -0.9798878 -0.02627676 -0.6442711 -0.763993 0.03506755 -0.8161231 -0.5771239 -0.02951502 -0.9802271 -0.1939215 0.0393632 -0.9886551 0.1428146 -0.04653298 -0.7654294 0.6417443 0.04777204 -0.5771384 0.8161296 -0.02905046 -0.08239996 0.9960016 0.03451484 0.1119716 0.9934295 -0.02367013 0.7097585 0.7039551 0.02626925 0.7244359 0.6891275 0.01720178 0.9976483 0.06223547 -0.02871769 -0.1402117 0.989733 0.02773535 -0.5771385 0.8161295 -0.02905035 -0.7654279 0.6417462 0.04777169 -0.988655 0.1428149 -0.04653316 -0.9802275 -0.1939194 0.03936266 -0.8161238 -0.5771229 -0.02951592 -0.6442695 -0.7639942 0.03506773 -0.1978119 -0.9798878 -0.02627706 0.1133969 -0.9927661 0.03945475 0.2962134 -0.9550876 -0.008081614 0.8045907 -0.5938155 0.004120469 0.8164119 -0.5773453 0.01200598 0.9980427 0.06226253 -0.005861103 0.9842055 0.1739729 0.0327602 0.7240009 0.6887125 -0.03870207 0.4815596 0.875529 0.03936153 0.1119689 0.993405 -0.02468812 0.9837215 -0.1579771 0.08564704 0.9140422 0.1498364 0.3769295 0.716803 0.1127979 0.6880917 0.6083663 -0.08487963 0.7891045 0.2811173 0.1375594 0.9497634 -0.008886754 -0.1165283 0.9931476 0.01640945 -0.1728633 0.9848091 -0.3173829 0.1453956 0.937085 -0.5579394 0.1099622 0.8225643 -0.7040327 -0.1341851 0.6973754 -0.8665532 0.1245734 0.4832876 -0.9993329 -0.0015347 0.03649103 -0.8686852 0.01219713 -0.4952145 -0.5408428 0.1137948 -0.8333907 -0.4705959 0.02336084 -0.8820396 -0.2437683 0.05997526 -0.9679774 0.0200808 -0.09153133 -0.9955998 0.0980938 0.08631569 -0.991427 0.5741441 0.08942055 -0.8138565 0.7035214 -0.1394944 -0.6968494 0.8812198 0.1456633 -0.4497041 0.9920529 0.08221262 -0.09524899 0.3782594 0.4009958 0.8343393 -0.06466573 0.5139633 0.8553713 0.04517078 0.5145158 0.8562904 -0.5062423 0.2289656 0.8314406 -0.4754487 -0.27469 0.8357596 0.05895888 -0.5141453 0.8556743 -0.0535584 -0.5143022 0.8559351 0.5241215 -0.2452281 0.8155733 -2.71676e-6 0 1 1.08248e-6 0 1 -4.97495e-7 0 1 -4.04718e-7 0 1 -7.57212e-7 0 1 0.9698735 0.2393673 -0.04526382 0.6907396 0.7218514 0.04253756 0.7307648 0.6796063 0.06417244 -0.04350119 0.9989379 -0.01519 0.1552795 0.9838633 0.08888924 -0.5809836 0.8121399 -0.05372893 -0.9128671 0.4043926 0.0560379 -0.9508538 0.3089371 0.02085608 -0.8673272 -0.4977073 0.005596339 -0.9160057 -0.3959746 0.06432592 -0.3985688 -0.9161784 -0.0419566 0.04798293 -0.9986078 0.02191573 4.35211e-4 -0.9999966 -0.002570033 0.909429 -0.415816 0.006001293 0.8211364 -0.5588822 0.1156975 0.8162108 0.5772029 0.02523815 0.7715182 0.6361926 -0.004316508 0.1712526 0.9851795 0.009699583 0.04643118 0.9982548 -0.03649067 -0.4022741 0.9146676 0.03948044 -0.8224046 0.5679888 -0.03224229 -0.771257 0.6364822 0.007279396 -0.9988811 -0.03370189 0.03317677 -0.9816168 -0.1903514 -0.01395833 -0.8311877 -0.5550855 0.03173583 -0.5395402 -0.840953 -0.0411629 -0.4168446 -0.9089336 0.008968651 0.1802034 -0.9834107 0.02074599 0.430494 -0.9010399 -0.05293589 0.628043 -0.7779598 0.01845908 0.9897236 -0.1429605 -0.003083407 0.9868476 -0.1615558 0.005626916 0.8164341 0.5773627 0.009376466 0.7961323 0.6051034 -0.004844844 0.1429501 0.9896798 0.00995779 0.164096 0.9862647 0.01882976 -0.5338692 0.845278 0.02211129 -0.505813 0.8625363 0.01358252 -0.8408562 0.5412502 -0.003012716 -0.8405295 0.5417585 -0.00282067 -0.999396 -0.03371953 0.008400499 -0.9870023 -0.1576088 -0.03139907 -0.8309544 -0.5549294 0.03960049 -0.4166428 -0.9084911 -0.0324468 -0.5033162 -0.8640087 0.0127235 0.1801893 -0.9833344 0.02419692 0.2844862 -0.9586659 -0.005234658 0.6280409 -0.7779573 0.01863616 0.7332951 -0.6796 -0.02054649 0.9895278 -0.1429322 0.02013403 0.9968541 -0.07918608 -0.003387629 0.9325612 0.3597183 -0.03053945 0.8155891 0.5767458 0.04667758 0.4211617 0.9067719 -0.01968717 0.1976971 0.9793176 0.04304713 -0.2962169 0.9550989 0.006465315 -0.348167 0.9373458 -0.01275318 -0.8042617 0.5935727 0.02889436 -0.8979564 0.4391594 -0.02851879 -0.997578 -0.06223225 0.03107333 -0.9529991 -0.3009363 -0.03507483 -0.7239027 -0.6886198 0.04204368 -0.4390613 -0.8977196 -0.03639811 -0.1119293 -0.9930517 0.03633493 0.2967472 -0.9542737 -0.03609746 0.5767665 -0.8156033 0.04617148 0.8743673 -0.4841604 -0.03271895 0.9880054 -0.1427206 0.05895936 0.9411757 0.3368542 -0.02679049 0.8156242 0.5767714 0.04573893 0.4390004 0.8975955 -0.04001456 0.197807 0.9798649 0.02715277 -0.2961925 0.9550183 -0.0144993 -0.1743206 0.9841888 0.03138238 -0.8045374 0.5937745 0.01230323 -0.7419892 0.6684502 0.05124878 -0.9997627 0.01878011 -0.01104098 -0.9978986 -0.06225299 0.01797324 -0.7245421 -0.6892253 -0.002727448 -0.8000218 -0.5981906 0.04618895 -0.2390097 -0.9710164 0.001257658 -0.1119058 -0.9928439 0.04169088 0.4390817 -0.8984355 0.004576504 0.5765913 -0.8153523 0.05237495 0.9087973 -0.4169951 -0.01423645 0.9880387 -0.142726 0.05838495 0.2537604 0.9650985 0.06473612 0.2811919 0.9534991 0.1084917 0.5676373 0.8184573 -0.08896976 0.8298989 0.5525748 0.07699936 0.8152227 0.5786132 0.02487432 0.9921869 0.1232595 -0.01929634 0.9951258 0.09782421 0.01245301 0.9672214 -0.2537437 -0.009851634 0.9393349 -0.3346785 0.07510143 0.8188642 -0.5670041 -0.08926302 0.5762268 -0.8147228 0.06472718 0.5497069 -0.8282839 0.1084821 0.2588413 -0.9616221 -0.09101665 -0.04377251 -0.9989081 0.0163303 -0.08053982 -0.9938483 0.07601898 -0.5331476 -0.845338 -0.0340203 -0.6140273 -0.7839426 0.09167629 -0.8128833 -0.5755464 -0.08926033 -0.9625495 -0.2633261 0.0644828 -0.9550297 -0.2961704 0.01419502 -0.9938071 0.1105079 -0.01164203 -0.9905648 0.1355707 0.02004903 -0.8232187 0.5673045 -0.02183616 -0.8061106 0.5913413 0.02239227 -0.456593 0.8894696 -0.01915013 -0.371891 0.9235999 0.09306091 -0.09443932 0.9914241 -0.09033095 0.7082526 -0.0976684 0.6991704 0.6096183 0.05564409 0.7907397 0.0905528 0.001194357 0.995891 0.01323008 -0.04462456 0.9989162 -0.0914191 0.004661619 0.9958017 -0.6049304 -0.05979537 0.7940301 -0.7070286 0.09813034 0.7003435 -0.9912849 -0.09952634 0.08630615 -0.9984873 -0.04154074 0.03602319 -0.8672927 0.05283129 -0.4949871 -0.7053005 -0.1333857 -0.6962468 -0.4692393 0.07935893 -0.879498 -0.08845502 -4.9403e-5 -0.9960802 -0.02679425 -0.03661942 -0.9989701 0.09147864 0.005210816 -0.9957934 0.4594643 -0.08473545 -0.884145 0.7040075 0.1345559 -0.6973294 0.8779497 -0.06996732 -0.4736126 0.9999825 0.004483222 0.00388813 0.991285 0.09952634 0.08630591 -0.4047162 -0.9140391 0.02715492 -0.06403535 -0.7026992 0.7085996 0.1595303 -0.6980502 0.6980516 0.08105856 -0.7047774 0.7047825 0.06391435 -0.6648812 0.7442096 0.7746814 -0.5546888 -0.3036265 0.2882481 0.1483451 -0.9459952 -0.182348 -0.4670188 0.8652415 -0.007738053 0.213989 0.9768055 0.08109974 -0.9854389 0.1494429 0.1901799 -0.3975415 0.8976594 0.7447214 -0.6614862 0.08846616 -0.4737831 -0.4965233 0.7273198 -0.2389132 -0.3683111 0.8984807 -0.5882524 0.415368 0.6938506 -0.7846638 -0.0920071 0.6130559 0.4658784 -0.01301807 0.8847531 0.621636 0.4473419 0.6430038 0.03238868 0.711839 0.7015956 0.01878553 0.7872168 0.6163901 0.3873013 -0.3603132 0.8486295 -0.289228 -0.6118597 0.7361895 0.2233616 -0.895422 0.3851354 0.05263864 0.7176411 0.6944209 -0.5471 0.749426 -0.372884 -0.4461215 0.2884204 0.8472246 -0.773243 -0.1209186 0.6224741 -0.8308513 -0.144078 0.53752 0.9284512 -0.3677567 0.05228132 0.5071103 -0.0412237 0.8608947 0.7400281 0.563099 0.3678016 0.6355488 0.440739 0.6338983 -0.4703457 0.2239124 0.853603 -0.9336453 -0.07607716 0.3500268 -0.5235146 -0.1597988 0.8368973 -0.63323 -0.7647156 0.1192896 -0.5581607 0.3318167 0.7604962 0.3345758 0.8320683 0.442404 -0.2063851 0.7376025 0.6429213 -0.2253047 -0.4731315 0.851695 0.2720586 -0.8767186 0.396672 0.1963617 -0.7441598 0.6384891 0.6501947 -0.2863388 0.703745 0.6415367 0.1807465 0.7454941 -0.5242052 0.08677166 0.8471598 -0.7444235 -0.5935527 0.3058252 0.2237941 0.4702236 0.8537014 -0.1813603 0.9779727 0.1033346 0.4677702 0.6551061 0.5933187 0.6362507 0.1550598 0.7557392 -0.3487027 -0.764568 0.5420722 -0.06785732 -0.6939009 0.7168661 -0.06278353 -0.7057117 0.7057119 0.05598777 -0.7059975 0.7059978 -0.1496632 -0.4943051 0.8563079 0.2148438 -0.7912042 0.5725716 -0.2858362 0.5540296 0.7818882 -0.5325437 0.7649128 0.3623614 -0.4591897 0.316432 0.8300697 -0.8897908 0.3581781 0.2828086 -0.5401035 0.05937141 0.8395019 -0.8379535 -0.2292479 0.495257 -0.7131676 -0.1616271 0.682106 -0.574584 -0.406849 0.71016 -0.6319134 -0.4951077 0.5962834 -0.3035284 -0.4851801 0.8200432 0.3027903 0.9141828 0.2694214 0.2086067 0.786526 0.5812573 -0.1347505 0.6118081 0.7794441 -0.0612688 0.668618 0.7410777 -0.06175047 0.6694344 0.7403003 0.311869 -0.9196725 0.2386215 0.3346234 -0.4775651 0.8123785 0.6629692 -0.4590628 0.5913825 0.6766793 -0.4637391 0.571884 0.5910948 -0.1550697 0.7915557 0.9287602 -0.03129863 0.3693576 0.5926744 0.07297319 0.8021296 0.6494593 0.4329872 0.6250798 0.695943 0.4860927 0.5285616 0.3358909 0.4892805 0.8048491 6.3056e-4 -1.47821e-4 0.9999998 0.004495859 0.002143621 0.9999877 -0.01399189 -0.007386803 0.9998749 -0.01412165 -0.007595539 0.9998714 0.01193624 0.0618965 0.9980113 0.006744146 0.03608268 0.9993261 -4.02895e-5 -2.53106e-4 1 -0.01041561 0.2012162 0.9794916 0.007959961 8.06597e-4 0.999968 0.01174014 -0.007946431 0.9998995 -0.007831931 -0.02940821 0.9995368 -0.01615595 -0.005557954 0.9998541 -5.81563e-5 0.003350555 0.9999944 0.01060646 -0.04785102 0.9987982 0.01411354 -0.06329149 0.9978954 0.001055121 2.42899e-5 0.9999995 5.30404e-4 5.02566e-4 0.9999998 5.37539e-4 5.02588e-4 0.9999998 0.1471068 -0.0541169 0.9876391 0.007437407 0.06944733 0.997558 -0.07115793 -0.05549198 0.9959204 9.62576e-4 0.04168105 0.9991305 -9.54386e-4 -3.30497e-4 0.9999995 -2.42411e-4 3.13992e-4 1 1.84505e-4 -1.33513e-4 1 0.002331435 -7.66994e-4 0.9999971 -7.14592e-5 6.24347e-4 0.9999999 0.03803181 0.008394956 0.9992414 -0.02399772 -0.01376521 0.9996173 -0.02619516 0.01794105 0.9994959 0.06350553 -0.06423127 0.9959124 0.03837466 -0.07840228 0.996183 -0.03825211 0.02451735 0.9989674 0.003736436 -0.004737913 0.9999818 5.9303e-4 -1.12633e-4 0.9999999 4.11673e-4 -6.95251e-4 0.9999998 -0.0225647 0.03848242 0.9990045 0.02143234 -0.02807563 0.9993761 -0.06888538 -0.02127701 0.9973977 -0.06652963 0.08603966 0.9940679 0.04299068 -8.70665e-4 0.9990752 -1.4469e-4 -2.35987e-4 1 -7.22467e-4 2.52203e-4 0.9999998 -7.08944e-4 1.95927e-4 0.9999998 -2.53647e-4 -3.90798e-4 1 -0.1110938 0.07510256 0.9909681 3.46222e-4 1.26517e-4 1 -0.008061289 -0.01263082 0.9998878 0.01699113 -0.02571201 0.9995251 0.1106917 0.07894867 0.9907141 0.01495534 -0.01646047 0.9997527 0.0225116 0.002533197 0.9997434 0.04878872 0.05021953 0.9975459 0.01289606 0.03800535 0.9991943 -0.0109722 0.004042983 0.9999316 0.03320062 0.03454661 0.9988515 -0.2013437 0.00673449 0.9794976 -0.05175507 -0.03555893 0.9980266 -0.03673124 0.02251011 0.9990717 -7.46535e-4 -2.15496e-4 0.9999998 -0.006769716 -0.01997923 0.9997776 -0.03563129 -0.02476471 0.9990581 -1.34484e-4 6.58459e-4 0.9999998 -0.0175119 -0.01940041 0.9996585 0.02329123 -0.01296162 0.9996447 -0.0107063 0.004630386 0.999932 0.003283321 0.001216232 0.9999939 -0.008596181 -0.002904951 0.9999589 -7.28907e-4 -0.01104211 0.9999388 -0.008666992 0.02732402 0.9995891 0.9651181 -0.08136022 0.2488525 0.708708 0.09088891 0.6996229 0.5758176 -0.0503056 0.8160292 0.09389513 -6.47856e-4 0.995582 0.03390359 -0.02278 0.9991655 -0.08846265 0.01147711 0.9960134 -0.4102715 -0.01945346 0.9117559 -0.603327 0.09404027 0.7919299 -0.8366923 -0.07607293 0.5423642 -0.9906006 0.1061701 0.08624631 -0.987344 -0.06937646 -0.1426143 -0.7082985 0.09699463 -0.6992177 -0.5905834 -0.04106265 -0.8059313 -0.09391278 0.000999987 -0.99558 0.08580595 -0.06815856 -0.9939778 -0.02672839 0.006434917 -0.9996221 0.4610289 0.02084708 -0.8871402 0.4750211 0.009658157 -0.8799214 0.8801074 0.001508235 -0.4747725 0.8869144 -0.008611261 -0.4618535 0.9971993 0.07468938 0.003877341 0.4466707 -0.7108632 0.5432853 0.3693237 -0.4998089 0.7834483 0.6367679 -0.05676233 0.7689634 0.7609155 -0.3720137 0.5316141 0.4249128 -0.2793288 0.8610603 0.567625 -0.5103366 0.6460329 0.7841773 -0.09512108 0.6132031 0.6585845 0.4041929 0.6347398 0.7574202 0.2102649 0.6181451 0.5792073 0.1244212 0.8056291 0.4806213 0.3413906 0.8077474 0.5128561 0.5343971 0.6718619 0.4905961 0.4811902 0.7264788 0.2448024 0.4551027 0.856127 0.2669575 0.480351 0.835462 -0.006966352 0.5386328 0.842512 9.74595e-5 0.5783585 0.8157828 0.2116251 0.8487424 0.4846145 -0.2218576 0.8235056 0.522128 -0.3636717 0.6358447 0.6807675 -0.2519852 0.513934 0.819985 -0.5111708 0.4962773 0.7017218 -0.4824627 0.4026642 0.7778762 -0.6080164 0.647754 0.4590542 -0.6986209 0.3242331 0.6378102 -0.5382468 0.2047619 0.8175348 -0.875137 0.1371992 0.4640169 -0.5755553 -0.05560946 0.8158699 -0.530828 -0.05926179 0.8454051 -0.8363918 -0.3114129 0.4510775 -0.4736917 -0.3337439 0.8150038 -0.526194 -0.3578767 0.7713911 -0.4360677 -0.5071172 0.7434226 -0.4965314 -0.6271979 0.6000661 0.1175808 -0.5957452 0.7945204 0.111774 -0.4976642 0.8601378 -0.05613303 -0.9302554 0.3625935 -0.2006103 -0.5806476 0.7890526 -0.2038277 -0.599146 0.7742599 0 1 -4.26123e-5 0 1 0 0 1 -1.76051e-5 -0.2020977 -0.9782427 -0.04688137 -0.3256134 -0.943691 0.05850803 -0.4640058 -0.8817584 -0.08485776 -0.6191396 -0.7805531 0.08604198 -0.7483399 -0.6578962 -0.08461743 -0.8155339 -0.5768694 0.04611009 -0.936972 -0.3488615 -0.01947981 -0.9425567 -0.3297057 -0.05367636 -0.9932377 -0.09924912 0.06023675 -0.9915788 0.07054615 -0.1086037 -0.9873626 0.1560134 0.02783858 -0.9056562 0.4193401 0.06277674 -0.866732 0.4925354 -0.07864314 -0.714927 0.6979996 0.04094016 -0.6689943 0.7418809 -0.04537981 -0.4956099 0.8664138 0.06081032 -0.381709 0.9221946 -0.06209129 -0.2598584 0.9645671 0.04565209 -0.09231662 0.9938412 -0.06129825 -0.007222056 0.9990285 0.04347443 0.2456112 0.9692569 -0.01471036 0.2461144 0.9691154 -0.01559257 0.4840409 0.8749448 0.01327157 0.5005773 0.8656011 -0.01253598 0.6908484 0.7229002 0.01199841 0.7037616 0.710325 -0.01257151 0.8522543 0.5229863 0.01217263 0.8609359 0.5085945 -0.01101428 0.9632552 0.2683325 0.01171731 0.9616271 0.2735403 0.02119237 0.998529 -0.003520905 -0.05410802 0.9923672 -0.08991807 0.08439326 0.9294034 -0.3591302 -0.08505856 0.8973158 -0.4384266 0.05105465 0.7435345 -0.6684225 -0.01917999 0.7282484 -0.6830907 -0.05514907 0.5311748 -0.8442078 0.07187908 0.4171758 -0.9031888 -0.1010672 0.2166384 -0.9727563 0.08254009 0.07167577 -0.9954667 -0.06251853 -0.06016623 -0.9971376 0.04578936 0.760606 0.4223582 -0.4930438 0.7001996 -0.2470544 -0.6698393 0.3838865 0.3532941 -0.8531204 0.2233856 0.0489124 -0.9735022 -0.005797922 0.3917263 -0.9200636 -0.0999642 0.2328591 -0.9673593 -0.5776399 0.4365267 -0.6897656 -0.7497979 -0.3934562 -0.5319732 -0.8125194 0.5439851 -0.2095056 -0.9747195 -0.1837903 0.1270554 -0.8160278 0.3918262 0.4249366 -0.7162723 -0.2766069 0.640658 -0.4004744 0.5378813 0.7418248 -0.08805197 -0.03128635 0.9956245 -0.05047726 -0.1763696 0.9830289 0.1679585 0.1110977 0.9795139 -0.03492593 0.238367 0.970547 0.4878177 0.5646979 0.6656954 0.7416805 -0.2217951 0.6330221 0.9136596 0.3844599 0.1319722 0.997326 -0.06549388 0.03242552 -1.23096e-4 -5.86442e-5 1 -2.71888e-5 -4.6303e-5 1 -1.36166e-5 -5.33106e-5 1 0.001549839 -0.003193676 0.9999938 2.33052e-5 5.83888e-5 1 8.17096e-6 5.24765e-5 1 -2.26266e-6 5.46996e-5 1 -1.26754e-5 6.20882e-5 1 -0.006148934 -0.00472331 0.99997 -3.77625e-5 3.85658e-4 1 3.16079e-4 3.44673e-4 0.9999999 2.15791e-5 -5.63783e-5 1 -1.63793e-5 6.08603e-5 1 -2.14955e-5 4.79895e-5 1 -2.02316e-6 5.561e-5 1 -1.40602e-5 1.22811e-5 1 -1.32808e-4 -3.82134e-5 1 -1.28555e-4 -7.57551e-5 1 -1.32475e-4 -8.89354e-5 1 -1.03931e-4 -1.04659e-4 1 5.44564e-5 3.3142e-5 1 3.91157e-5 3.46399e-5 1 2.52177e-5 5.37782e-5 1 2.93425e-5 5.4007e-5 1 -1.01838e-5 -6.10709e-5 1 1.2598e-5 -1.34722e-5 1 5.09354e-5 -2.18956e-6 1 4.47787e-5 -2.56747e-5 1 6.07339e-5 -1.94959e-5 1 -6.16927e-5 -5.94037e-6 1 -5.86783e-5 2.20637e-5 1 -1.45106e-4 -2.08636e-5 1 -1.45929e-4 5.22066e-7 1 -1.6046e-4 -1.43898e-5 1 7.00294e-5 5.05575e-5 1 1.42148e-4 -1.02329e-5 1 1.38752e-4 4.89493e-5 1 8.31875e-5 -3.15557e-5 1 -0.05254876 0.9981749 0.02976006 -0.09454548 0.7107217 0.697091 0.1632328 0.6976877 0.6975579 0.05901736 0.7059565 0.7057921 0.07680952 0.6644874 0.7433416 -0.03833949 -0.7518202 0.6582525 -0.1709054 -0.6497043 0.7407265 -0.2010736 -0.6865493 0.6987271 -0.3847081 -0.5843635 0.7145061 -0.371242 -0.5742135 0.7296974 -0.5396897 -0.5145239 0.6663334 -0.5072708 -0.3966134 0.7650975 -0.6656897 -0.3878381 0.6375256 -0.5928824 -0.1973102 0.7807427 -0.7317875 -0.1780031 0.6578769 -0.7342371 -0.002356886 0.678889 -0.6267367 0.04742765 0.7777865 -0.7357153 0.1594645 0.6582508 -0.6134932 0.2737695 0.740727 -0.6251406 0.2867897 0.7259138 -0.5915302 0.4629563 0.660124 -0.4936608 0.4402903 0.7499624 -0.411181 0.6150577 0.6727811 -0.3983385 0.5658023 0.7219378 -0.2518715 0.7078448 0.6599368 -0.195424 0.6437281 0.7398809 -0.03938871 0.7125527 0.7005121 -0.04279768 0.7064764 0.7064415 -0.07447445 0.7051607 0.7051255 0.03647059 0.7146832 0.6984969 0.125674 0.5948508 0.7939513 0.1972103 0.6928704 0.6935696 0.3928146 0.5747159 0.7179125 0.3809135 0.5652426 0.7317143 0.5965392 0.4744949 0.6472986 0.5161261 0.3214684 0.7938967 0.6805124 0.3174985 0.6603769 0.71657 0.1601406 0.6788833 0.6033973 0.07503938 0.7939024 0.7509208 0.002410292 0.6603879 0.7141571 -0.1677665 0.6795837 0.6043593 -0.1817896 0.7756947 0.6658706 -0.3809636 0.6414695 0.5368166 -0.3832223 0.751644 0.5410773 -0.5272126 0.6551964 0.418387 -0.4991284 0.7588301 0.3681644 -0.6868695 0.6266302 0.2452599 -0.5919965 0.7677159 0.140717 -0.7541374 0.6414636 0.04360038 -0.642438 0.7650963 0.001218736 0.7135587 0.7005945 0 0.7070726 0.707141 0.003532052 0.6867099 0.7269231 0.002509355 0.9997525 -0.02210915 0 0.999996 0.00284177 0.003482997 0.9973283 -0.07296699 -0.00328499 0.9995297 0.03049099 -0.00594294 0.9895744 -0.1439003 -0.004607796 0.9963387 0.0853703 0 0.9998826 -0.01532995 0.007167458 0.999974 8.72524e-4 0.01247298 0.9616778 0.2738982 0.006875574 0.9999765 0 0.006136596 0.9999805 0.001183927 -0.01263594 0.9996922 -0.02134931 -0.004534661 0.9999831 0.003666877 -0.006602406 0.9999783 0 0 0.7117468 -0.7024361 -0.002060174 0.7040178 -0.7101793 -0.003558635 0.686494 -0.7271268 -0.3343868 0.942436 -2.87305e-4 -0.3133313 0.9494686 0.01825058 -0.3695166 0.928884 -0.02514332 -0.03212726 0.9994063 0.01244574 -0.01147961 0.9996903 0.02208095 -0.07968217 0.9957608 0.04594862 0.09611308 0.9952518 -0.0153734 0.2752177 0.9610982 0.02335691 0.3568785 0.9290012 0.09795147 0.3219942 0.9454578 -0.04928988 0.4053446 0.914164 0 0.1288325 0.9776955 -0.1658729 0.08486372 0.9959674 0.02910649 0.03088027 0.9989044 0.03516554 -0.1457129 0.9872534 -0.06402051 -0.09295552 0.9945706 0.04678243 -0.3103977 0.9502888 0.02458977 0.3179138 0.9481196 -2.791e-4 0.3808359 0.9246264 -0.005492806 0.5578606 0.8299105 0.006339967 0.5829328 0.8125151 -0.002961218 0.7824528 0.6227039 0.00271964 0.7921212 0.6103613 -0.001787662 0.9062208 0.4228025 0.001398205 0.9115605 0.411163 -0.001555502 0.9759249 0.2181025 0.001398384 0.9786373 0.2055884 -0.001555323 0.9999939 0.00320971 0.001398205 0.9999528 -0.009593963 -0.001555204 0.9734331 -0.2289658 0.001651704 0.9697321 -0.2441546 -0.002889096 0.8681012 -0.4963798 0.002718567 0.8602157 -0.5099271 -0.001788258 0.7160378 -0.6980597 0.001651644 0.7193585 -0.6946324 0.003038108 0.5361059 -0.8441156 -0.007708907 0.4723876 -0.8813102 0.01192498 0.2738246 -0.9617274 -0.01001894 0.1836663 -0.9829517 0.008524596 0.04455411 -0.998985 -0.006630182 -0.05093038 -0.9986813 0.006472945 -0.1913064 -0.9814906 -0.008832395 -0.2813309 -0.9595587 0.009997785 -0.4803319 -0.8770038 -0.01206988 -0.5426574 -0.8399232 0.00722897 -0.7237775 -0.6900281 -0.002747237 -0.7214744 -0.6924389 -0.001788616 -0.8641756 -0.5031877 0.00165224 -0.8719343 -0.4896144 -0.002889096 -0.9716017 -0.2366071 0.002719283 -0.9751936 -0.2213468 -0.00178802 -0.9999939 -0.003209114 0.001398086 -0.9999529 0.009593367 -0.001555085 -0.9773057 0.2118295 0.001398265 -0.9745127 0.2243272 -0.001555442 -0.9089173 0.4169742 0.001398265 -0.9035034 0.428578 -0.001555025 -0.7873244 0.6165367 0.001651823 -0.7775861 0.6287699 -0.002889573 -0.5781903 0.8158973 0.002751111 -0.5679341 0.8230735 -9.63817e-4 -0.4086022 0.9127122 -8.55507e-4 -0.4124873 0.9109634 0 0 0 -1 2.41208e-6 0 -1 -4.19738e-6 0 -1 -9.97982e-6 0 -1 1.02455e-5 0 -1 -4.73442e-6 0 -1 -4.7039e-6 0 -1 4.80335e-6 0 -1 4.99992e-6 0 -1 -3.67235e-6 0 -1 2.52767e-6 0 -1 -2.31867e-6 0 -1 -7.26478e-7 0 -1 2.30774e-6 0 -1 1.12152e-5 0 -1 -2.35009e-6 0 -1 1.15644e-5 0 -1 -4.5506e-6 0 -1 1.07139e-5 0 -1 1.08728e-5 0 -1 -1.11395e-5 0 -1 -2.25975e-6 0 -1 1.10417e-5 0 -1 2.25927e-6 0 -1 -2.19456e-6 0 -1 4.39926e-6 0 -1 1.42491e-5 0 -1 5.44741e-5 -1.04287e-4 -1 4.80297e-5 -1.02612e-4 -1 5.11993e-5 -1.42668e-4 -1 1.86326e-5 1.30357e-5 -1 -5.66685e-6 2.64639e-5 -1 -4.73222e-6 3.76345e-5 -1 -1.91175e-5 7.26231e-4 -0.9999998 -1.93299e-5 7.29156e-4 -0.9999998 6.6087e-5 8.28446e-4 -0.9999997 3.68188e-4 0.001859426 -0.9999983 -6.42348e-5 1.27353e-4 -1 2.35145e-5 7.56789e-5 -1 4.51141e-5 1.16098e-4 -1 -8.82346e-5 -1.34587e-4 -1 -8.14811e-5 -1.4164e-4 -1 -1.49573e-4 -1.97929e-4 -1 -2.7327e-5 -6.33474e-5 -1 2.12181e-6 0 -1 -9.33528e-6 0 -1 -9.22964e-6 0 -1 9.93841e-6 0 -1 2.82904e-5 0 -1 9.32185e-6 0 -1</float_array>
          <technique_common>
            <accessor source="#eSeries_UR10e_042-mesh-normals-array" count="936" stride="3">
              <param name="X" type="float"/>
              <param name="Y" type="float"/>
              <param name="Z" type="float"/>
            </accessor>
          </technique_common>
        </source>
        <vertices id="eSeries_UR10e_042-mesh-vertices">
          <input semantic="POSITION" source="#eSeries_UR10e_042-mesh-positions"/>
        </vertices>
        <lines count="2">
          <input semantic="VERTEX" source="#eSeries_UR10e_042-mesh-vertices" offset="0"/>
          <p>327 358 332 356</p>
        </lines>
        <triangles material="LinkGrey_003-material" count="978">
          <input semantic="VERTEX" source="#eSeries_UR10e_042-mesh-vertices" offset="0"/>
          <input semantic="NORMAL" source="#eSeries_UR10e_042-mesh-normals" offset="1"/>
          <p>1 0 2 0 0 0 1 1 4 1 3 1 1 2 5 2 4 2 1 3 0 3 5 3 6 4 8 4 7 4 9 5 8 5 6 5 6 6 10 6 9 6 6 7 11 7 10 7 14 7 12 7 13 7 13 7 15 7 14 7 13 8 16 8 15 8 19 7 17 7 18 7 18 7 20 7 19 7 18 9 21 9 20 9 0 10 22 10 5 10 5 11 22 11 23 11 5 12 23 12 4 12 4 13 23 13 24 13 4 14 24 14 3 14 3 15 24 15 25 15 3 16 25 16 1 16 1 17 25 17 26 17 1 18 26 18 2 18 2 19 26 19 27 19 2 20 27 20 0 20 0 21 27 21 22 21 6 22 28 22 11 22 11 23 28 23 29 23 11 24 29 24 10 24 10 25 29 25 30 25 10 26 30 26 9 26 9 27 30 27 31 27 9 16 31 16 8 16 8 28 31 28 32 28 8 29 32 29 7 29 7 30 32 30 33 30 7 31 33 31 6 31 6 32 33 32 28 32 12 33 34 33 35 33 12 34 35 34 13 34 13 35 35 35 36 35 13 36 36 36 16 36 16 37 36 37 37 37 16 38 37 38 15 38 15 39 37 39 38 39 15 40 38 40 39 40 15 41 39 41 14 41 14 42 39 42 34 42 14 43 34 43 12 43 17 44 40 44 18 44 18 45 40 45 41 45 18 46 41 46 21 46 21 47 41 47 42 47 21 48 42 48 43 48 21 49 43 49 20 49 20 50 43 50 44 50 20 51 44 51 19 51 19 52 44 52 45 52 19 53 45 53 17 53 17 54 45 54 40 54 23 55 46 55 24 55 24 56 46 56 25 56 25 57 46 57 47 57 25 58 47 58 26 58 26 59 47 59 48 59 26 60 48 60 27 60 27 61 48 61 49 61 27 62 49 62 22 62 22 63 49 63 50 63 22 64 50 64 23 64 23 65 50 65 51 65 23 66 51 66 46 66 29 67 52 67 30 67 30 68 52 68 31 68 31 69 52 69 53 69 31 70 53 70 32 70 32 71 53 71 54 71 32 72 54 72 33 72 33 73 54 73 55 73 33 74 55 74 28 74 28 75 55 75 56 75 28 64 56 64 29 64 29 76 56 76 57 76 29 77 57 77 52 77 36 78 58 78 59 78 36 79 59 79 37 79 37 80 59 80 60 80 37 81 60 81 38 81 38 82 60 82 61 82 38 83 61 83 39 83 39 84 61 84 62 84 39 85 62 85 34 85 34 86 62 86 63 86 34 87 63 87 35 87 35 88 63 88 58 88 35 89 58 89 36 89 41 90 68 90 42 90 42 91 68 91 64 91 42 92 64 92 43 92 43 93 64 93 65 93 43 94 65 94 44 94 44 95 65 95 66 95 44 96 66 96 45 96 45 97 66 97 67 97 45 98 67 98 40 98 40 99 67 99 41 99 41 100 67 100 68 100 130 101 125 101 69 101 70 102 130 102 69 102 127 103 70 103 69 103 131 104 127 104 69 104 51 105 71 105 46 105 46 106 71 106 72 106 46 107 72 107 73 107 46 108 73 108 47 108 47 109 73 109 74 109 47 110 74 110 48 110 48 111 74 111 75 111 48 112 75 112 76 112 48 113 76 113 49 113 49 114 76 114 50 114 50 115 76 115 77 115 50 116 77 116 78 116 50 117 78 117 51 117 51 118 78 118 71 118 57 119 79 119 52 119 52 120 79 120 80 120 52 121 80 121 81 121 52 122 81 122 53 122 53 123 81 123 82 123 53 124 82 124 54 124 54 125 82 125 83 125 54 126 83 126 84 126 54 127 84 127 55 127 55 128 84 128 56 128 56 129 84 129 85 129 56 130 85 130 86 130 56 131 86 131 57 131 57 132 86 132 79 132 59 133 87 133 60 133 60 134 87 134 88 134 60 135 88 135 89 135 60 136 89 136 61 136 61 137 89 137 90 137 61 138 90 138 62 138 62 139 90 139 91 139 62 140 91 140 63 140 63 141 91 141 92 141 63 142 92 142 93 142 63 143 93 143 58 143 58 144 93 144 94 144 58 145 94 145 59 145 59 146 94 146 87 146 68 147 95 147 64 147 64 148 95 148 96 148 64 149 96 149 65 149 65 150 96 150 97 150 65 151 97 151 98 151 65 152 98 152 66 152 66 153 98 153 99 153 66 154 99 154 67 154 67 155 99 155 100 155 67 156 100 156 101 156 67 157 101 157 68 157 68 158 101 158 102 158 68 159 102 159 95 159 107 160 106 160 108 160 107 161 108 161 109 161 107 162 109 162 110 162 117 163 116 163 118 163 120 164 103 164 121 164 120 165 121 165 119 165 115 166 116 166 122 166 115 167 122 167 114 167 116 168 117 168 122 168 106 169 107 169 105 169 103 170 128 170 121 170 119 171 121 171 123 171 119 172 123 172 117 172 114 173 122 173 124 173 114 174 124 174 113 174 112 175 113 175 125 175 112 176 125 176 111 176 110 177 111 177 126 177 110 178 126 178 107 178 104 179 105 179 127 179 104 180 127 180 103 180 103 181 127 181 128 181 117 182 123 182 122 182 113 183 124 183 125 183 107 184 126 184 129 184 107 185 129 185 105 185 122 186 123 186 124 186 111 187 125 187 130 187 111 188 130 188 126 188 105 189 129 189 127 189 121 190 128 190 131 190 121 191 131 191 123 191 126 192 130 192 129 192 123 193 131 193 132 193 123 194 132 194 124 194 124 195 132 195 69 195 124 196 69 196 125 196 129 197 133 197 127 197 128 198 127 198 131 198 70 199 127 199 133 199 130 200 133 200 129 200 134 201 75 201 74 201 134 202 74 202 135 202 135 203 74 203 136 203 136 204 74 204 73 204 136 205 73 205 137 205 137 206 73 206 72 206 137 207 72 207 138 207 138 208 72 208 71 208 138 209 71 209 139 209 139 210 71 210 78 210 139 211 78 211 140 211 140 212 78 212 77 212 140 213 77 213 141 213 141 214 77 214 76 214 141 215 76 215 142 215 142 216 76 216 143 216 143 217 76 217 75 217 143 218 75 218 134 218 144 219 83 219 82 219 144 220 82 220 145 220 145 221 82 221 146 221 146 222 82 222 81 222 146 223 81 223 147 223 147 224 81 224 80 224 147 225 80 225 148 225 148 226 80 226 79 226 148 227 79 227 149 227 149 228 79 228 86 228 149 229 86 229 150 229 150 230 86 230 85 230 150 231 85 231 151 231 151 232 85 232 84 232 151 233 84 233 152 233 152 234 84 234 153 234 153 235 84 235 83 235 153 236 83 236 144 236 154 237 90 237 89 237 154 238 89 238 155 238 155 239 89 239 88 239 155 240 88 240 156 240 156 241 88 241 87 241 156 242 87 242 157 242 157 243 87 243 94 243 157 244 94 244 158 244 158 245 94 245 93 245 158 246 93 246 159 246 159 247 93 247 92 247 159 248 92 248 160 248 160 249 92 249 91 249 160 250 91 250 161 250 161 251 91 251 90 251 161 252 90 252 162 252 162 253 90 253 154 253 100 254 163 254 101 254 101 255 163 255 164 255 101 256 164 256 102 256 102 257 164 257 165 257 102 258 165 258 95 258 95 259 165 259 166 259 95 260 166 260 96 260 96 261 166 261 167 261 96 262 167 262 97 262 97 263 167 263 168 263 97 264 168 264 169 264 97 265 169 265 98 265 98 266 169 266 170 266 98 267 170 267 99 267 99 268 170 268 171 268 99 269 171 269 100 269 100 270 171 270 163 270 179 271 112 271 172 271 172 272 112 272 111 272 172 273 111 273 110 273 172 274 110 274 173 274 173 275 110 275 109 275 173 276 109 276 174 276 174 277 109 277 106 277 174 278 106 278 105 278 174 279 105 279 104 279 174 280 104 280 175 280 175 281 104 281 103 281 175 282 103 282 120 282 120 283 119 283 176 283 176 284 119 284 117 284 176 285 117 285 177 285 177 286 117 286 118 286 177 287 118 287 178 287 178 288 118 288 115 288 178 289 115 289 114 289 178 290 114 290 179 290 179 291 114 291 113 291 179 292 113 292 112 292 181 293 182 293 180 293 183 294 184 294 180 294 182 295 183 295 180 295 180 296 184 296 185 296 185 297 186 297 180 297 188 298 187 298 180 298 186 299 188 299 180 299 187 300 181 300 180 300 193 301 192 301 189 301 189 7 192 7 191 7 189 302 194 302 193 302 189 303 195 303 194 303 189 304 196 304 195 304 197 7 196 7 189 7 189 305 198 305 197 305 189 7 199 7 198 7 189 7 190 7 199 7 181 306 210 306 202 306 181 307 202 307 182 307 182 308 202 308 203 308 182 309 203 309 184 309 184 310 203 310 204 310 184 311 204 311 205 311 184 312 205 312 185 312 185 313 205 313 206 313 185 314 206 314 186 314 186 315 206 315 207 315 186 316 207 316 208 316 186 317 208 317 209 317 186 318 209 318 187 318 187 319 209 319 181 319 181 320 209 320 210 320 138 321 211 321 137 321 137 322 211 322 212 322 137 323 212 323 136 323 136 324 212 324 213 324 136 325 213 325 135 325 135 326 213 326 134 326 134 327 213 327 214 327 134 328 214 328 143 328 143 329 214 329 215 329 143 330 215 330 142 330 142 331 215 331 216 331 142 332 216 332 141 332 141 333 216 333 140 333 140 334 216 334 217 334 140 335 217 335 139 335 139 336 217 336 138 336 138 337 217 337 211 337 148 338 218 338 147 338 147 339 218 339 219 339 147 340 219 340 146 340 146 341 219 341 220 341 146 342 220 342 221 342 146 343 221 343 145 343 145 344 221 344 144 344 144 345 221 345 222 345 144 346 222 346 153 346 153 347 222 347 223 347 153 348 223 348 152 348 152 349 223 349 151 349 151 350 223 350 224 350 151 351 224 351 150 351 150 352 224 352 225 352 150 353 225 353 149 353 149 354 225 354 226 354 149 355 226 355 148 355 148 356 226 356 218 356 158 357 227 357 228 357 158 358 228 358 157 358 157 359 228 359 229 359 157 360 229 360 156 360 156 361 229 361 155 361 155 362 229 362 230 362 155 363 230 363 154 363 154 364 230 364 231 364 154 365 231 365 162 365 162 366 231 366 232 366 162 367 232 367 161 367 161 368 232 368 233 368 161 369 233 369 160 369 160 370 233 370 234 370 160 371 234 371 159 371 159 372 234 372 227 372 159 373 227 373 158 373 165 374 235 374 236 374 165 375 236 375 166 375 166 376 236 376 237 376 166 377 237 377 167 377 167 378 237 378 168 378 168 379 237 379 238 379 168 380 238 380 169 380 169 381 238 381 239 381 169 382 239 382 240 382 169 383 240 383 170 383 170 384 240 384 171 384 171 385 240 385 241 385 171 386 241 386 242 386 171 387 242 387 163 387 163 388 242 388 243 388 163 389 243 389 164 389 164 390 243 390 235 390 164 391 235 391 165 391 244 392 190 392 245 392 245 393 190 393 189 393 245 394 189 394 246 394 246 395 189 395 247 395 247 396 189 396 191 396 247 397 191 397 248 397 248 398 191 398 192 398 248 399 192 399 249 399 249 400 192 400 193 400 249 401 193 401 250 401 250 402 193 402 251 402 251 403 193 403 194 403 251 404 194 404 252 404 252 405 194 405 253 405 253 406 194 406 195 406 253 407 195 407 254 407 254 408 195 408 196 408 254 409 196 409 255 409 255 410 196 410 256 410 256 411 196 411 197 411 256 412 197 412 257 412 257 413 197 413 198 413 257 414 198 414 258 414 258 415 198 415 199 415 258 416 199 416 259 416 259 417 199 417 190 417 259 418 190 418 244 418 260 419 172 419 261 419 261 420 172 420 173 420 261 421 173 421 201 421 261 422 201 422 262 422 262 423 201 423 174 423 262 424 174 424 263 424 263 425 174 425 175 425 263 426 175 426 264 426 264 427 175 427 120 427 264 428 120 428 176 428 264 429 176 429 265 429 265 430 176 430 177 430 265 431 177 431 200 431 265 432 200 432 266 432 266 433 200 433 178 433 266 434 178 434 267 434 267 435 178 435 179 435 267 436 179 436 268 436 268 437 179 437 260 437 260 438 179 438 172 438 208 439 207 439 269 439 208 440 269 440 270 440 270 441 269 441 271 441 270 442 271 442 209 442 209 443 271 443 272 443 209 444 272 444 210 444 202 445 210 445 203 445 203 446 273 446 274 446 203 447 274 447 204 447 216 448 275 448 276 448 216 449 276 449 217 449 217 450 276 450 277 450 215 451 278 451 275 451 215 452 275 452 216 452 213 453 280 453 214 453 215 454 214 454 278 454 217 455 277 455 211 455 212 456 211 456 279 456 212 457 279 457 213 457 213 458 279 458 280 458 225 459 281 459 226 459 223 460 282 460 224 460 225 461 224 461 281 461 219 462 283 462 220 462 221 463 220 463 284 463 221 464 284 464 222 464 222 465 284 465 223 465 223 466 284 466 282 466 281 467 285 467 226 467 226 468 285 468 218 468 218 469 285 469 219 469 219 470 285 470 283 470 230 471 286 471 231 471 231 472 286 472 287 472 231 473 287 473 232 473 232 474 287 474 288 474 230 475 289 475 286 475 228 476 290 476 229 476 230 477 229 477 289 477 232 478 288 478 233 478 233 479 288 479 234 479 234 480 288 480 291 480 234 481 291 481 227 481 228 482 227 482 290 482 239 483 292 483 240 483 240 484 292 484 241 484 236 485 293 485 237 485 237 486 293 486 238 486 236 487 294 487 293 487 236 488 235 488 294 488 253 489 303 489 295 489 253 490 295 490 296 490 296 491 295 491 297 491 296 492 297 492 252 492 252 493 297 493 298 493 252 494 298 494 251 494 259 495 299 495 258 495 258 496 299 496 300 496 258 497 300 497 257 497 257 498 300 498 301 498 257 499 301 499 256 499 256 500 301 500 255 500 255 501 301 501 302 501 255 502 302 502 254 502 254 503 302 503 303 503 254 504 303 504 253 504 245 505 309 505 304 505 245 506 304 506 244 506 244 507 304 507 305 507 244 508 305 508 259 508 259 509 305 509 299 509 251 510 298 510 306 510 251 511 306 511 250 511 250 512 306 512 249 512 249 513 306 513 307 513 249 514 307 514 248 514 248 515 307 515 308 515 248 516 308 516 247 516 247 517 308 517 246 517 246 518 308 518 309 518 246 519 309 519 245 519 295 520 303 520 277 520 304 521 309 521 312 521 313 522 206 522 277 522 277 523 206 523 205 523 277 524 205 524 204 524 277 525 204 525 273 525 277 526 273 526 282 526 282 527 273 527 203 527 282 528 203 528 210 528 282 529 210 529 314 529 314 530 210 530 272 530 313 531 207 531 206 531 314 532 272 532 313 532 313 533 272 533 269 533 269 534 207 534 313 534 301 535 280 535 302 535 302 536 280 536 279 536 302 537 279 537 303 537 211 538 277 538 303 538 303 539 279 539 211 539 278 540 214 540 316 540 316 541 214 541 280 541 316 542 280 542 317 542 317 543 280 543 301 543 276 544 313 544 277 544 318 545 319 545 285 545 285 546 319 546 283 546 220 547 283 547 308 547 306 548 284 548 220 548 306 549 220 549 307 549 315 550 281 550 224 550 315 551 224 551 314 551 314 552 224 552 282 552 318 553 285 553 281 553 300 554 288 554 301 554 300 555 291 555 288 555 312 556 290 556 227 556 299 557 227 557 300 557 300 558 227 558 291 558 320 559 289 559 229 559 320 560 229 560 290 560 301 561 288 561 317 561 317 562 288 562 321 562 321 563 288 563 287 563 321 564 287 564 286 564 321 565 286 565 289 565 283 566 319 566 308 566 308 567 319 567 243 567 308 568 243 568 242 568 294 569 235 569 322 569 322 570 235 570 243 570 322 571 243 571 319 571 323 572 293 572 294 572 238 573 323 573 312 573 238 574 312 574 239 574 238 575 293 575 323 575 307 576 220 576 308 576 292 577 239 577 312 577 309 578 241 578 292 578 309 579 292 579 312 579 308 580 242 580 241 580 308 581 241 581 309 581 320 582 290 582 312 582 276 583 275 583 313 583 299 584 312 584 227 584 312 585 299 585 304 585 298 586 282 586 306 586 306 587 282 587 284 587 282 588 298 588 277 588 277 589 298 589 295 589 324 590 260 590 325 590 325 591 260 591 261 591 325 592 261 592 326 592 326 593 261 593 311 593 326 594 311 594 327 594 327 595 311 595 262 595 327 596 262 596 328 596 328 597 262 597 263 597 328 598 263 598 329 598 329 599 263 599 264 599 329 600 264 600 330 600 330 601 264 601 265 601 330 602 265 602 331 602 331 603 265 603 310 603 331 604 310 604 266 604 331 605 266 605 332 605 332 606 266 606 267 606 332 607 267 607 333 607 333 608 267 608 268 608 333 609 268 609 324 609 324 610 268 610 260 610 334 611 320 611 335 611 334 612 289 612 320 612 336 613 321 613 337 613 337 614 321 614 338 614 338 615 321 615 289 615 338 616 289 616 334 616 336 617 317 617 321 617 339 618 316 618 340 618 340 619 316 619 336 619 336 620 316 620 317 620 339 621 278 621 316 621 341 622 275 622 339 622 339 623 275 623 278 623 342 624 313 624 275 624 342 625 275 625 341 625 343 626 314 626 313 626 343 627 313 627 344 627 344 628 313 628 342 628 345 629 314 629 343 629 346 630 315 630 345 630 345 631 315 631 314 631 347 632 315 632 346 632 347 633 318 633 281 633 347 634 281 634 315 634 318 635 347 635 348 635 318 636 348 636 319 636 319 637 348 637 349 637 319 638 349 638 350 638 319 639 350 639 322 639 322 640 350 640 351 640 322 641 351 641 352 641 322 642 352 642 294 642 352 643 323 643 294 643 353 644 323 644 352 644 335 645 320 645 312 645 335 646 312 646 354 646 354 647 312 647 355 647 355 648 312 648 353 648 353 649 312 649 323 649 331 650 356 650 357 650 326 651 358 651 359 651 326 652 359 652 325 652 360 653 355 653 361 653 361 654 355 654 353 654 361 655 353 655 362 655 362 656 353 656 352 656 362 657 352 657 363 657 363 658 352 658 351 658 363 659 351 659 350 659 363 660 350 660 364 660 364 661 350 661 349 661 364 662 349 662 365 662 365 663 349 663 348 663 365 664 348 664 347 664 365 665 347 665 366 665 366 666 347 666 346 666 366 667 346 667 367 667 367 668 346 668 345 668 367 669 345 669 368 669 368 670 345 670 343 670 368 671 343 671 369 671 369 672 343 672 344 672 369 673 344 673 342 673 369 674 342 674 370 674 370 675 342 675 341 675 370 676 341 676 371 676 371 677 341 677 339 677 371 678 339 678 372 678 372 679 339 679 340 679 372 680 340 680 373 680 373 681 340 681 336 681 373 682 336 682 374 682 374 683 336 683 375 683 375 684 336 684 337 684 375 685 337 685 376 685 376 686 337 686 338 686 376 687 338 687 334 687 376 688 334 688 377 688 377 689 334 689 335 689 377 690 335 690 378 690 378 691 335 691 354 691 378 692 354 692 360 692 360 693 354 693 355 693 329 694 379 694 328 694 328 695 379 695 380 695 328 696 380 696 327 696 327 697 380 697 381 697 327 698 381 698 359 698 359 699 381 699 382 699 359 700 382 700 325 700 325 701 382 701 383 701 325 702 383 702 324 702 324 703 383 703 384 703 324 704 384 704 333 704 333 705 384 705 385 705 333 706 385 706 332 706 332 707 385 707 357 707 357 708 385 708 386 708 357 709 386 709 331 709 331 710 386 710 387 710 331 711 387 711 330 711 330 712 387 712 388 712 330 713 388 713 329 713 329 714 388 714 379 714 371 715 399 715 389 715 371 716 389 716 370 716 370 717 389 717 369 717 369 718 389 718 390 718 361 719 391 719 392 719 361 720 392 720 360 720 360 721 392 721 378 721 378 722 392 722 393 722 369 723 390 723 394 723 369 724 394 724 368 724 368 725 394 725 395 725 368 726 395 726 367 726 378 727 393 727 396 727 378 728 396 728 377 728 377 729 396 729 397 729 377 730 397 730 376 730 374 731 398 731 373 731 373 732 398 732 372 732 372 733 398 733 399 733 372 734 399 734 371 734 363 735 400 735 401 735 363 736 401 736 362 736 362 737 401 737 391 737 362 738 391 738 361 738 367 739 395 739 402 739 367 740 402 740 366 740 366 741 402 741 403 741 366 742 403 742 365 742 365 743 403 743 404 743 397 744 405 744 376 744 376 745 405 745 375 745 375 746 405 746 406 746 375 747 406 747 374 747 374 748 406 748 398 748 365 749 404 749 407 749 365 750 407 750 364 750 364 751 407 751 363 751 363 752 407 752 400 752 380 753 408 753 381 753 385 754 409 754 410 754 410 755 409 755 411 755 410 756 411 756 386 756 386 757 411 757 387 757 412 758 392 758 413 758 413 759 392 759 391 759 413 760 391 760 414 760 414 761 391 761 401 761 414 762 401 762 415 762 415 763 401 763 416 763 416 764 401 764 400 764 416 765 400 765 417 765 417 766 400 766 407 766 417 767 407 767 418 767 418 768 407 768 419 768 419 769 407 769 404 769 419 770 404 770 420 770 420 771 404 771 403 771 420 772 403 772 421 772 421 773 403 773 422 773 422 774 403 774 402 774 422 775 402 775 395 775 422 776 395 776 423 776 423 777 395 777 424 777 424 778 395 778 394 778 424 779 394 779 425 779 424 780 425 780 426 780 426 781 425 781 390 781 426 782 390 782 427 782 427 783 390 783 389 783 427 784 389 784 428 784 428 785 389 785 399 785 428 786 399 786 429 786 429 787 399 787 430 787 430 788 399 788 398 788 430 789 398 789 431 789 431 790 398 790 432 790 432 791 398 791 406 791 432 792 406 792 433 792 433 793 406 793 434 793 434 794 406 794 405 794 434 795 405 795 435 795 435 796 405 796 397 796 435 797 397 797 436 797 436 798 397 798 396 798 436 799 396 799 437 799 437 800 396 800 393 800 437 801 393 801 412 801 412 802 393 802 392 802 438 803 439 803 440 803 440 804 439 804 441 804 439 805 438 805 442 805 444 806 383 806 382 806 409 807 440 807 441 807 409 808 441 808 387 808 441 809 388 809 387 809 380 810 443 810 408 810 444 811 382 811 408 811 444 812 408 812 443 812 380 813 379 813 443 813 409 814 385 814 440 814 443 815 379 815 441 815 441 816 379 816 388 816 440 817 385 817 384 817 440 818 384 818 383 818 440 819 383 819 444 819 443 820 446 820 444 820 444 821 446 821 445 821 445 822 446 822 447 822 424 823 446 823 423 823 423 824 446 824 443 824 448 825 449 825 441 825 446 826 424 826 450 826 450 827 424 827 427 827 450 828 427 828 447 828 447 829 427 829 445 829 445 830 427 830 428 830 451 831 438 831 452 831 452 832 438 832 440 832 452 833 440 833 444 833 451 834 453 834 438 834 453 835 442 835 454 835 453 836 454 836 438 836 448 837 439 837 453 837 453 838 439 838 442 838 441 839 439 839 448 839 445 840 428 840 444 840 444 841 428 841 452 841 452 842 428 842 429 842 452 843 429 843 455 843 455 844 429 844 430 844 455 845 430 845 456 845 456 846 430 846 431 846 456 847 431 847 457 847 457 848 431 848 432 848 457 849 432 849 458 849 458 850 432 850 433 850 458 851 433 851 459 851 459 852 433 852 434 852 459 853 434 853 460 853 460 854 434 854 435 854 460 855 435 855 461 855 461 856 435 856 436 856 461 857 436 857 462 857 462 858 436 858 463 858 463 859 436 859 437 859 463 860 437 860 464 860 464 861 437 861 412 861 464 862 412 862 465 862 465 863 412 863 413 863 465 864 413 864 466 864 466 865 413 865 414 865 466 866 414 866 467 866 467 867 414 867 415 867 467 868 415 868 416 868 467 869 416 869 468 869 468 870 416 870 417 870 468 871 417 871 469 871 469 872 417 872 418 872 469 873 418 873 470 873 470 874 418 874 419 874 470 875 419 875 471 875 471 876 419 876 420 876 471 877 420 877 472 877 472 878 420 878 421 878 472 879 421 879 473 879 473 880 421 880 422 880 473 881 422 881 474 881 474 882 422 882 423 882 474 883 423 883 449 883 449 884 423 884 443 884 449 885 443 885 441 885 475 886 458 886 459 886 475 887 459 887 476 887 476 886 459 886 477 886 477 886 459 886 460 886 477 886 460 886 478 886 478 888 460 888 479 888 479 889 460 889 480 889 480 890 460 890 461 890 480 891 461 891 481 891 481 886 461 886 482 886 482 886 461 886 462 886 482 892 462 892 483 892 483 893 462 893 484 893 484 886 462 886 463 886 484 894 463 894 485 894 485 895 463 895 486 895 486 886 463 886 487 886 487 896 463 896 464 896 487 897 464 897 488 897 488 886 464 886 489 886 489 898 464 898 465 898 489 899 465 899 490 899 490 886 465 886 491 886 491 886 465 886 466 886 491 886 466 886 492 886 492 886 466 886 493 886 493 900 466 900 494 900 494 886 466 886 467 886 494 901 467 901 495 901 495 886 467 886 496 886 496 902 467 902 497 902 497 886 467 886 468 886 497 903 468 903 498 903 498 886 468 886 499 886 499 886 468 886 469 886 499 886 469 886 500 886 500 886 469 886 501 886 501 886 469 886 502 886 502 886 469 886 470 886 502 886 470 886 503 886 503 904 470 904 504 904 504 886 470 886 471 886 504 886 471 886 505 886 505 905 471 905 506 905 506 906 471 906 472 906 506 907 472 907 507 907 507 908 472 908 508 908 508 886 472 886 473 886 508 909 473 909 509 909 509 886 473 886 510 886 510 886 473 886 474 886 510 910 474 910 511 910 511 911 474 911 512 911 512 912 474 912 513 912 513 913 474 913 449 913 513 914 449 914 514 914 514 915 449 915 515 915 515 916 449 916 448 916 515 917 448 917 516 917 516 918 448 918 517 918 517 919 448 919 453 919 517 920 453 920 518 920 518 921 453 921 519 921 519 922 453 922 520 922 520 923 453 923 451 923 520 924 451 924 521 924 521 925 451 925 522 925 522 926 451 926 452 926 522 927 452 927 523 927 523 928 452 928 524 928 524 929 452 929 455 929 524 930 455 930 525 930 525 931 455 931 526 931 526 886 455 886 527 886 527 886 455 886 456 886 527 932 456 932 528 932 528 886 456 886 529 886 529 933 456 933 457 933 529 886 457 886 530 886 530 934 457 934 531 934 531 886 457 886 458 886 531 935 458 935 475 935</p>
        </triangles>
      </mesh>
    </geometry>
  </library_geometries>
  <library_visual_scenes>
    <visual_scene id="Scene" name="Scene">
      <node id="eSeries_UR10e_042" name="eSeries_UR10e_042" type="NODE">
        <matrix sid="transform">-9.99987e-4 0 -3.89409e-10 0 0 -9.99987e-4 4.37108e-11 0 -3.89409e-10 4.37108e-11 9.99987e-4 0 0 0 0 1</matrix>
        <instance_geometry url="#eSeries_UR10e_042-mesh" name="eSeries_UR10e_042">
          <bind_material>
            <technique_common>
              <instance_material symbol="LinkGrey_003-material" target="#LinkGrey_003-material"/>
            </technique_common>
          </bind_material>
        </instance_geometry>
      </node>
    </visual_scene>
  </library_visual_scenes>
  <scene>
    <instance_visual_scene url="#Scene"/>
  </scene>
</COLLADA>